<svg width="742" height="769" viewBox="0 0 742 769" fill="none" xmlns="http://www.w3.org/2000/svg">
<path d="M234.705 228.726L455.577 15.6704C455.841 15.4139 456.103 15.1606 456.365 14.9105C479.201 -6.93983 492.692 -4.57476 484.416 32.9496L447.26 177.814C433.229 227.198 440.961 253.325 476.926 275.059C524.872 299.631 528.541 319.179 508.622 339.759C506.962 341.474 505.139 343.197 503.163 344.93L284.336 552.175C266.684 570.037 257.066 565.119 267.206 524.327L305.522 363.451C309.722 338.577 310.291 315.693 268.474 288.951C242.213 269.139 200.955 262.921 234.705 228.726Z" fill="#A5DEE5"/>
<path d="M231.361 231.952L457.679 13.6428M234.705 228.726C200.955 262.921 242.213 269.139 268.474 288.951C310.291 315.693 309.722 338.577 305.522 363.45M306.139 360.856L266.434 527.565M282.99 553.45L509.308 339.11M484.803 31.441L445.098 186.242M484.416 32.9496C492.786 -5.00428 478.89 -6.98937 455.577 15.6704M284.336 552.175C266.684 570.037 257.066 565.119 267.206 524.327M503.163 344.93C528.845 322.402 528.867 301.678 476.926 275.059C440.961 253.325 433.229 227.198 447.26 177.814" stroke="#A5DEE5"/>
<path d="M161.625 601.75V670H152.578V601.75H161.625ZM187.147 598V670H178.429V598H187.147ZM211.451 598V670H202.732V598H211.451ZM257.364 658.281V619.281H266.083V670H257.786L257.364 658.281ZM259.005 647.594L262.614 647.5C262.614 650.875 262.255 654 261.536 656.875C260.849 659.719 259.724 662.188 258.161 664.281C256.599 666.375 254.552 668.016 252.021 669.203C249.489 670.359 246.411 670.938 242.786 670.938C240.317 670.938 238.052 670.578 235.989 669.859C233.958 669.141 232.208 668.031 230.739 666.531C229.271 665.031 228.13 663.078 227.317 660.672C226.536 658.266 226.146 655.375 226.146 652V619.281H234.817V652.094C234.817 654.375 235.067 656.266 235.567 657.766C236.099 659.234 236.802 660.406 237.677 661.281C238.583 662.125 239.583 662.719 240.677 663.062C241.802 663.406 242.958 663.578 244.146 663.578C247.833 663.578 250.755 662.875 252.911 661.469C255.067 660.031 256.614 658.109 257.552 655.703C258.521 653.266 259.005 650.562 259.005 647.594ZM288.887 629.359V670H280.168V619.281H288.418L288.887 629.359ZM287.106 642.719L283.074 642.578C283.106 639.109 283.559 635.906 284.434 632.969C285.309 630 286.606 627.422 288.324 625.234C290.043 623.047 292.184 621.359 294.746 620.172C297.309 618.953 300.277 618.344 303.652 618.344C306.027 618.344 308.215 618.688 310.215 619.375C312.215 620.031 313.949 621.078 315.418 622.516C316.887 623.953 318.027 625.797 318.84 628.047C319.652 630.297 320.059 633.016 320.059 636.203V670H311.387V636.625C311.387 633.969 310.934 631.844 310.027 630.25C309.152 628.656 307.902 627.5 306.277 626.781C304.652 626.031 302.746 625.656 300.559 625.656C297.996 625.656 295.856 626.109 294.137 627.016C292.418 627.922 291.043 629.172 290.012 630.766C288.981 632.359 288.231 634.188 287.762 636.25C287.324 638.281 287.106 640.438 287.106 642.719ZM319.965 637.938L314.152 639.719C314.184 636.938 314.637 634.266 315.512 631.703C316.418 629.141 317.715 626.859 319.402 624.859C321.121 622.859 323.231 621.281 325.731 620.125C328.231 618.938 331.09 618.344 334.309 618.344C337.027 618.344 339.434 618.703 341.527 619.422C343.652 620.141 345.434 621.25 346.871 622.75C348.34 624.219 349.449 626.109 350.199 628.422C350.949 630.734 351.324 633.484 351.324 636.672V670H342.606V636.578C342.606 633.734 342.152 631.531 341.246 629.969C340.371 628.375 339.121 627.266 337.496 626.641C335.902 625.984 333.996 625.656 331.777 625.656C329.871 625.656 328.184 625.984 326.715 626.641C325.246 627.297 324.012 628.203 323.012 629.359C322.012 630.484 321.246 631.781 320.715 633.25C320.215 634.719 319.965 636.281 319.965 637.938ZM374.831 619.281V670H366.113V619.281H374.831ZM365.456 605.828C365.456 604.422 365.878 603.234 366.722 602.266C367.597 601.297 368.878 600.812 370.566 600.812C372.222 600.812 373.488 601.297 374.363 602.266C375.269 603.234 375.722 604.422 375.722 605.828C375.722 607.172 375.269 608.328 374.363 609.297C373.488 610.234 372.222 610.703 370.566 610.703C368.878 610.703 367.597 610.234 366.722 609.297C365.878 608.328 365.456 607.172 365.456 605.828ZM398.385 630.109V670H389.713V619.281H397.916L398.385 630.109ZM396.322 642.719L392.713 642.578C392.744 639.109 393.26 635.906 394.26 632.969C395.26 630 396.666 627.422 398.479 625.234C400.291 623.047 402.447 621.359 404.947 620.172C407.479 618.953 410.276 618.344 413.338 618.344C415.838 618.344 418.088 618.688 420.088 619.375C422.088 620.031 423.791 621.094 425.197 622.562C426.635 624.031 427.729 625.938 428.479 628.281C429.229 630.594 429.604 633.422 429.604 636.766V670H420.885V636.672C420.885 634.016 420.494 631.891 419.713 630.297C418.932 628.672 417.791 627.5 416.291 626.781C414.791 626.031 412.947 625.656 410.76 625.656C408.604 625.656 406.635 626.109 404.854 627.016C403.104 627.922 401.588 629.172 400.307 630.766C399.057 632.359 398.072 634.188 397.354 636.25C396.666 638.281 396.322 640.438 396.322 642.719ZM473.642 661.328V635.219C473.642 633.219 473.236 631.484 472.423 630.016C471.642 628.516 470.454 627.359 468.861 626.547C467.267 625.734 465.298 625.328 462.954 625.328C460.767 625.328 458.845 625.703 457.189 626.453C455.564 627.203 454.283 628.188 453.345 629.406C452.439 630.625 451.986 631.938 451.986 633.344H443.314C443.314 631.531 443.783 629.734 444.72 627.953C445.658 626.172 447.001 624.562 448.751 623.125C450.533 621.656 452.658 620.5 455.126 619.656C457.626 618.781 460.408 618.344 463.47 618.344C467.158 618.344 470.408 618.969 473.22 620.219C476.064 621.469 478.283 623.359 479.876 625.891C481.501 628.391 482.314 631.531 482.314 635.312V658.938C482.314 660.625 482.454 662.422 482.736 664.328C483.048 666.234 483.501 667.875 484.095 669.25V670H475.048C474.611 669 474.267 667.672 474.017 666.016C473.767 664.328 473.642 662.766 473.642 661.328ZM475.142 639.25L475.236 645.344H466.47C464.001 645.344 461.798 645.547 459.861 645.953C457.923 646.328 456.298 646.906 454.986 647.688C453.673 648.469 452.673 649.453 451.986 650.641C451.298 651.797 450.954 653.156 450.954 654.719C450.954 656.312 451.314 657.766 452.033 659.078C452.751 660.391 453.829 661.438 455.267 662.219C456.736 662.969 458.533 663.344 460.658 663.344C463.314 663.344 465.658 662.781 467.689 661.656C469.72 660.531 471.329 659.156 472.517 657.531C473.736 655.906 474.392 654.328 474.486 652.797L478.189 656.969C477.97 658.281 477.376 659.734 476.408 661.328C475.439 662.922 474.142 664.453 472.517 665.922C470.923 667.359 469.017 668.562 466.798 669.531C464.611 670.469 462.142 670.938 459.392 670.938C455.954 670.938 452.939 670.266 450.345 668.922C447.783 667.578 445.783 665.781 444.345 663.531C442.939 661.25 442.236 658.703 442.236 655.891C442.236 653.172 442.767 650.781 443.829 648.719C444.892 646.625 446.423 644.891 448.423 643.516C450.423 642.109 452.829 641.047 455.642 640.328C458.454 639.609 461.595 639.25 465.064 639.25H475.142ZM518.149 619.281V625.938H490.727V619.281H518.149ZM500.008 606.953H508.68V657.438C508.68 659.156 508.946 660.453 509.477 661.328C510.008 662.203 510.696 662.781 511.539 663.062C512.383 663.344 513.289 663.484 514.258 663.484C514.977 663.484 515.727 663.422 516.508 663.297C517.321 663.141 517.93 663.016 518.336 662.922L518.383 670C517.696 670.219 516.789 670.422 515.664 670.609C514.571 670.828 513.242 670.938 511.68 670.938C509.555 670.938 507.602 670.516 505.821 669.672C504.039 668.828 502.617 667.422 501.555 665.453C500.524 663.453 500.008 660.766 500.008 657.391V606.953ZM550.328 670.938C546.796 670.938 543.593 670.344 540.718 669.156C537.874 667.938 535.421 666.234 533.359 664.047C531.328 661.859 529.765 659.266 528.671 656.266C527.578 653.266 527.031 649.984 527.031 646.422V644.453C527.031 640.328 527.64 636.656 528.859 633.438C530.078 630.188 531.734 627.438 533.828 625.188C535.921 622.938 538.296 621.234 540.953 620.078C543.609 618.922 546.359 618.344 549.203 618.344C552.828 618.344 555.953 618.969 558.578 620.219C561.234 621.469 563.406 623.219 565.093 625.469C566.781 627.688 568.031 630.312 568.843 633.344C569.656 636.344 570.062 639.625 570.062 643.188V647.078H532.187V640H561.39V639.344C561.265 637.094 560.796 634.906 559.984 632.781C559.203 630.656 557.953 628.906 556.234 627.531C554.515 626.156 552.171 625.469 549.203 625.469C547.234 625.469 545.421 625.891 543.765 626.734C542.109 627.547 540.687 628.766 539.499 630.391C538.312 632.016 537.39 634 536.734 636.344C536.078 638.688 535.749 641.391 535.749 644.453V646.422C535.749 648.828 536.078 651.094 536.734 653.219C537.421 655.312 538.406 657.156 539.687 658.75C540.999 660.344 542.578 661.594 544.421 662.5C546.296 663.406 548.421 663.859 550.796 663.859C553.859 663.859 556.453 663.234 558.578 661.984C560.703 660.734 562.562 659.062 564.156 656.969L569.406 661.141C568.312 662.797 566.921 664.375 565.234 665.875C563.546 667.375 561.468 668.594 558.999 669.531C556.562 670.469 553.671 670.938 550.328 670.938Z" fill="#A5DEE5"/>
<path d="M24.6562 753.32V757H7.59375V753.32H24.6562ZM8.48438 722.875V757H3.96094V722.875H8.48438ZM34.3706 731.641V757H30.0112V731.641H34.3706ZM29.6831 724.914C29.6831 724.211 29.8941 723.617 30.3159 723.133C30.7534 722.648 31.3941 722.406 32.2378 722.406C33.0659 722.406 33.6987 722.648 34.1362 723.133C34.5894 723.617 34.8159 724.211 34.8159 724.914C34.8159 725.586 34.5894 726.164 34.1362 726.648C33.6987 727.117 33.0659 727.352 32.2378 727.352C31.3941 727.352 30.7534 727.117 30.3159 726.648C29.8941 726.164 29.6831 725.586 29.6831 724.914ZM58.2412 731.641H62.1787V756.461C62.1787 758.695 61.7256 760.602 60.8194 762.18C59.9131 763.758 58.6475 764.953 57.0225 765.766C55.4131 766.594 53.5537 767.008 51.4444 767.008C50.5694 767.008 49.5381 766.867 48.3506 766.586C47.1787 766.32 46.0225 765.859 44.8819 765.203C43.7569 764.562 42.8116 763.695 42.0459 762.602L44.3194 760.023C45.3819 761.305 46.4912 762.195 47.6475 762.695C48.8194 763.195 49.9756 763.445 51.1162 763.445C52.4912 763.445 53.6787 763.188 54.6787 762.672C55.6787 762.156 56.4522 761.391 56.9991 760.375C57.5616 759.375 57.8428 758.141 57.8428 756.672V737.219L58.2412 731.641ZM40.7803 744.602V744.109C40.7803 742.172 41.0069 740.414 41.46 738.836C41.9287 737.242 42.5928 735.875 43.4522 734.734C44.3272 733.594 45.3819 732.719 46.6162 732.109C47.8506 731.484 49.2412 731.172 50.7881 731.172C52.3819 731.172 53.7725 731.453 54.96 732.016C56.1631 732.562 57.1787 733.367 58.0069 734.43C58.8506 735.477 59.5147 736.742 59.9991 738.227C60.4834 739.711 60.8194 741.391 61.0069 743.266V745.422C60.835 747.281 60.4991 748.953 59.9991 750.438C59.5147 751.922 58.8506 753.188 58.0069 754.234C57.1787 755.281 56.1631 756.086 54.96 756.648C53.7569 757.195 52.3506 757.469 50.7412 757.469C49.2256 757.469 47.8506 757.148 46.6162 756.508C45.3975 755.867 44.3506 754.969 43.4756 753.812C42.6006 752.656 41.9287 751.297 41.46 749.734C41.0069 748.156 40.7803 746.445 40.7803 744.602ZM45.1162 744.109V744.602C45.1162 745.867 45.2412 747.055 45.4912 748.164C45.7569 749.273 46.1553 750.25 46.6866 751.094C47.2334 751.938 47.9287 752.602 48.7725 753.086C49.6162 753.555 50.6241 753.789 51.7959 753.789C53.2334 753.789 54.4209 753.484 55.3584 752.875C56.2959 752.266 57.0381 751.461 57.585 750.461C58.1475 749.461 58.585 748.375 58.8975 747.203V741.555C58.7256 740.695 58.46 739.867 58.1006 739.07C57.7569 738.258 57.3037 737.539 56.7412 736.914C56.1944 736.273 55.5147 735.766 54.7022 735.391C53.8897 735.016 52.9366 734.828 51.8428 734.828C50.6553 734.828 49.6319 735.078 48.7725 735.578C47.9287 736.062 47.2334 736.734 46.6866 737.594C46.1553 738.438 45.7569 739.422 45.4912 740.547C45.2412 741.656 45.1162 742.844 45.1162 744.109ZM73.5806 721V757H69.2447V721H73.5806ZM72.5494 743.359L70.7447 743.289C70.7603 741.555 71.0181 739.953 71.5181 738.484C72.0181 737 72.7213 735.711 73.6275 734.617C74.5338 733.523 75.6119 732.68 76.8619 732.086C78.1275 731.477 79.5259 731.172 81.0572 731.172C82.3072 731.172 83.4322 731.344 84.4322 731.688C85.4322 732.016 86.2838 732.547 86.9869 733.281C87.7056 734.016 88.2525 734.969 88.6275 736.141C89.0025 737.297 89.19 738.711 89.19 740.383V757H84.8306V740.336C84.8306 739.008 84.6353 737.945 84.2447 737.148C83.8541 736.336 83.2838 735.75 82.5338 735.391C81.7838 735.016 80.8619 734.828 79.7681 734.828C78.69 734.828 77.7056 735.055 76.815 735.508C75.94 735.961 75.1822 736.586 74.5416 737.383C73.9166 738.18 73.4244 739.094 73.065 740.125C72.7213 741.141 72.5494 742.219 72.5494 743.359ZM106.779 731.641V734.969H93.0684V731.641H106.779ZM97.7091 725.477H102.045V750.719C102.045 751.578 102.178 752.227 102.443 752.664C102.709 753.102 103.053 753.391 103.475 753.531C103.897 753.672 104.35 753.742 104.834 753.742C105.193 753.742 105.568 753.711 105.959 753.648C106.365 753.57 106.67 753.508 106.873 753.461L106.897 757C106.553 757.109 106.1 757.211 105.537 757.305C104.99 757.414 104.326 757.469 103.545 757.469C102.482 757.469 101.506 757.258 100.615 756.836C99.7247 756.414 99.0137 755.711 98.4825 754.727C97.9669 753.727 97.7091 752.383 97.7091 750.695V725.477ZM135.349 731.641V734.969H121.638V731.641H135.349ZM126.278 725.477H130.614V750.719C130.614 751.578 130.747 752.227 131.013 752.664C131.278 753.102 131.622 753.391 132.044 753.531C132.466 753.672 132.919 753.742 133.403 753.742C133.763 753.742 134.138 753.711 134.528 753.648C134.935 753.57 135.239 753.508 135.442 753.461L135.466 757C135.122 757.109 134.669 757.211 134.107 757.305C133.56 757.414 132.896 757.469 132.114 757.469C131.052 757.469 130.075 757.258 129.185 756.836C128.294 756.414 127.583 755.711 127.052 754.727C126.536 753.727 126.278 752.383 126.278 750.695V725.477ZM145.251 721V757H140.915V721H145.251ZM144.219 743.359L142.415 743.289C142.43 741.555 142.688 739.953 143.188 738.484C143.688 737 144.391 735.711 145.298 734.617C146.204 733.523 147.282 732.68 148.532 732.086C149.798 731.477 151.196 731.172 152.727 731.172C153.977 731.172 155.102 731.344 156.102 731.688C157.102 732.016 157.954 732.547 158.657 733.281C159.376 734.016 159.923 734.969 160.298 736.141C160.673 737.297 160.86 738.711 160.86 740.383V757H156.501V740.336C156.501 739.008 156.305 737.945 155.915 737.148C155.524 736.336 154.954 735.75 154.204 735.391C153.454 735.016 152.532 734.828 151.438 734.828C150.36 734.828 149.376 735.055 148.485 735.508C147.61 735.961 146.852 736.586 146.212 737.383C145.587 738.18 145.094 739.094 144.735 740.125C144.391 741.141 144.219 742.219 144.219 743.359ZM178.356 757.469C176.59 757.469 174.988 757.172 173.551 756.578C172.129 755.969 170.902 755.117 169.871 754.023C168.856 752.93 168.074 751.633 167.527 750.133C166.981 748.633 166.707 746.992 166.707 745.211V744.227C166.707 742.164 167.012 740.328 167.621 738.719C168.231 737.094 169.059 735.719 170.106 734.594C171.152 733.469 172.34 732.617 173.668 732.039C174.996 731.461 176.371 731.172 177.793 731.172C179.606 731.172 181.168 731.484 182.481 732.109C183.809 732.734 184.895 733.609 185.738 734.734C186.582 735.844 187.207 737.156 187.613 738.672C188.02 740.172 188.223 741.812 188.223 743.594V745.539H169.285V742H183.887V741.672C183.824 740.547 183.59 739.453 183.184 738.391C182.793 737.328 182.168 736.453 181.309 735.766C180.449 735.078 179.277 734.734 177.793 734.734C176.809 734.734 175.902 734.945 175.074 735.367C174.246 735.773 173.535 736.383 172.942 737.195C172.348 738.008 171.887 739 171.559 740.172C171.231 741.344 171.067 742.695 171.067 744.227V745.211C171.067 746.414 171.231 747.547 171.559 748.609C171.902 749.656 172.395 750.578 173.035 751.375C173.692 752.172 174.481 752.797 175.402 753.25C176.34 753.703 177.402 753.93 178.59 753.93C180.121 753.93 181.418 753.617 182.481 752.992C183.543 752.367 184.473 751.531 185.27 750.484L187.895 752.57C187.348 753.398 186.652 754.188 185.809 754.938C184.965 755.688 183.926 756.297 182.692 756.766C181.473 757.234 180.027 757.469 178.356 757.469ZM215.784 746.688L222.558 722.875H225.839L223.941 732.133L216.652 757H213.394L215.784 746.688ZM208.777 722.875L214.167 746.219L215.784 757H212.55L204.277 722.875H208.777ZM234.605 746.195L239.878 722.875H244.402L236.152 757H232.917L234.605 746.195ZM226.331 722.875L232.917 746.688L235.308 757H232.05L225.019 732.133L223.097 722.875H226.331ZM263.397 752.664V739.609C263.397 738.609 263.194 737.742 262.788 737.008C262.397 736.258 261.803 735.68 261.007 735.273C260.21 734.867 259.225 734.664 258.053 734.664C256.96 734.664 255.999 734.852 255.171 735.227C254.358 735.602 253.717 736.094 253.249 736.703C252.796 737.312 252.569 737.969 252.569 738.672H248.233C248.233 737.766 248.467 736.867 248.936 735.977C249.405 735.086 250.077 734.281 250.952 733.562C251.842 732.828 252.905 732.25 254.139 731.828C255.389 731.391 256.78 731.172 258.311 731.172C260.155 731.172 261.78 731.484 263.186 732.109C264.608 732.734 265.717 733.68 266.514 734.945C267.327 736.195 267.733 737.766 267.733 739.656V751.469C267.733 752.312 267.803 753.211 267.944 754.164C268.1 755.117 268.327 755.938 268.624 756.625V757H264.1C263.882 756.5 263.71 755.836 263.585 755.008C263.46 754.164 263.397 753.383 263.397 752.664ZM264.147 741.625L264.194 744.672H259.811C258.577 744.672 257.475 744.773 256.507 744.977C255.538 745.164 254.725 745.453 254.069 745.844C253.413 746.234 252.913 746.727 252.569 747.32C252.225 747.898 252.053 748.578 252.053 749.359C252.053 750.156 252.233 750.883 252.592 751.539C252.952 752.195 253.491 752.719 254.21 753.109C254.944 753.484 255.842 753.672 256.905 753.672C258.233 753.672 259.405 753.391 260.421 752.828C261.436 752.266 262.241 751.578 262.835 750.766C263.444 749.953 263.772 749.164 263.819 748.398L265.671 750.484C265.561 751.141 265.264 751.867 264.78 752.664C264.296 753.461 263.647 754.227 262.835 754.961C262.038 755.68 261.085 756.281 259.975 756.766C258.882 757.234 257.647 757.469 256.272 757.469C254.553 757.469 253.046 757.133 251.749 756.461C250.467 755.789 249.467 754.891 248.749 753.766C248.046 752.625 247.694 751.352 247.694 749.945C247.694 748.586 247.96 747.391 248.491 746.359C249.022 745.312 249.788 744.445 250.788 743.758C251.788 743.055 252.991 742.523 254.397 742.164C255.803 741.805 257.374 741.625 259.108 741.625H264.147ZM281.783 754.375L288.838 731.641H293.479L283.307 760.914C283.073 761.539 282.76 762.211 282.369 762.93C281.994 763.664 281.51 764.359 280.916 765.016C280.323 765.672 279.604 766.203 278.76 766.609C277.932 767.031 276.94 767.242 275.783 767.242C275.44 767.242 275.002 767.195 274.471 767.102C273.94 767.008 273.565 766.93 273.346 766.867L273.323 763.352C273.448 763.367 273.643 763.383 273.908 763.398C274.19 763.43 274.385 763.445 274.494 763.445C275.479 763.445 276.315 763.312 277.002 763.047C277.69 762.797 278.268 762.367 278.737 761.758C279.221 761.164 279.635 760.344 279.979 759.297L281.783 754.375ZM276.604 731.641L283.19 751.328L284.315 755.898L281.198 757.492L271.869 731.641H276.604ZM320.876 731.641V734.969H307.165V731.641H320.876ZM311.806 725.477H316.142V750.719C316.142 751.578 316.275 752.227 316.54 752.664C316.806 753.102 317.15 753.391 317.572 753.531C317.993 753.672 318.447 753.742 318.931 753.742C319.29 753.742 319.665 753.711 320.056 753.648C320.462 753.57 320.767 753.508 320.97 753.461L320.993 757C320.65 757.109 320.197 757.211 319.634 757.305C319.087 757.414 318.423 757.469 317.642 757.469C316.579 757.469 315.603 757.258 314.712 756.836C313.822 756.414 313.111 755.711 312.579 754.727C312.064 753.727 311.806 752.383 311.806 750.695V725.477ZM324.825 744.602V744.062C324.825 742.234 325.091 740.539 325.622 738.977C326.153 737.398 326.919 736.031 327.919 734.875C328.919 733.703 330.13 732.797 331.552 732.156C332.973 731.5 334.567 731.172 336.333 731.172C338.114 731.172 339.716 731.5 341.138 732.156C342.575 732.797 343.794 733.703 344.794 734.875C345.809 736.031 346.583 737.398 347.114 738.977C347.645 740.539 347.911 742.234 347.911 744.062V744.602C347.911 746.43 347.645 748.125 347.114 749.688C346.583 751.25 345.809 752.617 344.794 753.789C343.794 754.945 342.583 755.852 341.161 756.508C339.755 757.148 338.161 757.469 336.38 757.469C334.598 757.469 332.997 757.148 331.575 756.508C330.153 755.852 328.934 754.945 327.919 753.789C326.919 752.617 326.153 751.25 325.622 749.688C325.091 748.125 324.825 746.43 324.825 744.602ZM329.161 744.062V744.602C329.161 745.867 329.309 747.062 329.606 748.188C329.903 749.297 330.348 750.281 330.942 751.141C331.552 752 332.309 752.68 333.216 753.18C334.122 753.664 335.177 753.906 336.38 753.906C337.567 753.906 338.606 753.664 339.497 753.18C340.403 752.68 341.153 752 341.747 751.141C342.341 750.281 342.786 749.297 343.083 748.188C343.395 747.062 343.552 745.867 343.552 744.602V744.062C343.552 742.812 343.395 741.633 343.083 740.523C342.786 739.398 342.333 738.406 341.723 737.547C341.13 736.672 340.38 735.984 339.473 735.484C338.583 734.984 337.536 734.734 336.333 734.734C335.145 734.734 334.098 734.984 333.192 735.484C332.302 735.984 331.552 736.672 330.942 737.547C330.348 738.406 329.903 739.398 329.606 740.523C329.309 741.633 329.161 742.812 329.161 744.062ZM388.551 753.32V757H370.48V753.32H388.551ZM371.394 722.875V757H366.871V722.875H371.394ZM386.16 737.547V741.227H370.48V737.547H386.16ZM388.316 722.875V726.578H370.48V722.875H388.316ZM398.312 737.055V757H393.976V731.641H398.078L398.312 737.055ZM397.281 743.359L395.476 743.289C395.492 741.555 395.749 739.953 396.249 738.484C396.749 737 397.453 735.711 398.359 734.617C399.265 733.523 400.343 732.68 401.593 732.086C402.859 731.477 404.257 731.172 405.788 731.172C407.038 731.172 408.163 731.344 409.163 731.688C410.163 732.016 411.015 732.547 411.718 733.281C412.437 734.016 412.984 734.969 413.359 736.141C413.734 737.297 413.921 738.711 413.921 740.383V757H409.562V740.336C409.562 739.008 409.367 737.945 408.976 737.148C408.585 736.336 408.015 735.75 407.265 735.391C406.515 735.016 405.593 734.828 404.499 734.828C403.421 734.828 402.437 735.055 401.546 735.508C400.671 735.961 399.913 736.586 399.273 737.383C398.648 738.18 398.156 739.094 397.796 740.125C397.453 741.141 397.281 742.219 397.281 743.359ZM431.511 757.469C429.745 757.469 428.143 757.172 426.706 756.578C425.284 755.969 424.057 755.117 423.026 754.023C422.011 752.93 421.229 751.633 420.682 750.133C420.136 748.633 419.862 746.992 419.862 745.211V744.227C419.862 742.164 420.167 740.328 420.776 738.719C421.386 737.094 422.214 735.719 423.261 734.594C424.307 733.469 425.495 732.617 426.823 732.039C428.151 731.461 429.526 731.172 430.948 731.172C432.761 731.172 434.323 731.484 435.636 732.109C436.964 732.734 438.05 733.609 438.893 734.734C439.737 735.844 440.362 737.156 440.768 738.672C441.175 740.172 441.378 741.812 441.378 743.594V745.539H422.44V742H437.042V741.672C436.979 740.547 436.745 739.453 436.339 738.391C435.948 737.328 435.323 736.453 434.464 735.766C433.604 735.078 432.432 734.734 430.948 734.734C429.964 734.734 429.057 734.945 428.229 735.367C427.401 735.773 426.69 736.383 426.097 737.195C425.503 738.008 425.042 739 424.714 740.172C424.386 741.344 424.222 742.695 424.222 744.227V745.211C424.222 746.414 424.386 747.547 424.714 748.609C425.057 749.656 425.55 750.578 426.19 751.375C426.847 752.172 427.636 752.797 428.557 753.25C429.495 753.703 430.557 753.93 431.745 753.93C433.276 753.93 434.573 753.617 435.636 752.992C436.698 752.367 437.628 751.531 438.425 750.484L441.05 752.57C440.503 753.398 439.807 754.188 438.964 754.938C438.12 755.688 437.081 756.297 435.847 756.766C434.628 757.234 433.182 757.469 431.511 757.469ZM451.256 735.625V757H446.92V731.641H451.139L451.256 735.625ZM459.178 731.5L459.155 735.531C458.795 735.453 458.452 735.406 458.123 735.391C457.811 735.359 457.452 735.344 457.045 735.344C456.045 735.344 455.163 735.5 454.397 735.812C453.631 736.125 452.983 736.562 452.452 737.125C451.92 737.688 451.498 738.359 451.186 739.141C450.889 739.906 450.694 740.75 450.6 741.672L449.381 742.375C449.381 740.844 449.53 739.406 449.827 738.062C450.139 736.719 450.616 735.531 451.256 734.5C451.897 733.453 452.709 732.641 453.694 732.062C454.694 731.469 455.881 731.172 457.256 731.172C457.569 731.172 457.928 731.211 458.334 731.289C458.741 731.352 459.022 731.422 459.178 731.5ZM479.627 731.641H483.564V756.461C483.564 758.695 483.111 760.602 482.205 762.18C481.299 763.758 480.033 764.953 478.408 765.766C476.799 766.594 474.939 767.008 472.83 767.008C471.955 767.008 470.924 766.867 469.736 766.586C468.564 766.32 467.408 765.859 466.267 765.203C465.142 764.562 464.197 763.695 463.432 762.602L465.705 760.023C466.767 761.305 467.877 762.195 469.033 762.695C470.205 763.195 471.361 763.445 472.502 763.445C473.877 763.445 475.064 763.188 476.064 762.672C477.064 762.156 477.838 761.391 478.385 760.375C478.947 759.375 479.228 758.141 479.228 756.672V737.219L479.627 731.641ZM462.166 744.602V744.109C462.166 742.172 462.392 740.414 462.846 738.836C463.314 737.242 463.978 735.875 464.838 734.734C465.713 733.594 466.767 732.719 468.002 732.109C469.236 731.484 470.627 731.172 472.174 731.172C473.767 731.172 475.158 731.453 476.346 732.016C477.549 732.562 478.564 733.367 479.392 734.43C480.236 735.477 480.9 736.742 481.385 738.227C481.869 739.711 482.205 741.391 482.392 743.266V745.422C482.221 747.281 481.885 748.953 481.385 750.438C480.9 751.922 480.236 753.188 479.392 754.234C478.564 755.281 477.549 756.086 476.346 756.648C475.142 757.195 473.736 757.469 472.127 757.469C470.611 757.469 469.236 757.148 468.002 756.508C466.783 755.867 465.736 754.969 464.861 753.812C463.986 752.656 463.314 751.297 462.846 749.734C462.392 748.156 462.166 746.445 462.166 744.602ZM466.502 744.109V744.602C466.502 745.867 466.627 747.055 466.877 748.164C467.142 749.273 467.541 750.25 468.072 751.094C468.619 751.938 469.314 752.602 470.158 753.086C471.002 753.555 472.01 753.789 473.182 753.789C474.619 753.789 475.807 753.484 476.744 752.875C477.682 752.266 478.424 751.461 478.971 750.461C479.533 749.461 479.971 748.375 480.283 747.203V741.555C480.111 740.695 479.846 739.867 479.486 739.07C479.142 738.258 478.689 737.539 478.127 736.914C477.58 736.273 476.9 735.766 476.088 735.391C475.275 735.016 474.322 734.828 473.228 734.828C472.041 734.828 471.017 735.078 470.158 735.578C469.314 736.062 468.619 736.734 468.072 737.594C467.541 738.438 467.142 739.422 466.877 740.547C466.627 741.656 466.502 742.844 466.502 744.109ZM497.755 754.375L504.81 731.641H509.451L499.279 760.914C499.044 761.539 498.732 762.211 498.341 762.93C497.966 763.664 497.482 764.359 496.888 765.016C496.294 765.672 495.576 766.203 494.732 766.609C493.904 767.031 492.912 767.242 491.755 767.242C491.412 767.242 490.974 767.195 490.443 767.102C489.912 767.008 489.537 766.93 489.318 766.867L489.294 763.352C489.419 763.367 489.615 763.383 489.88 763.398C490.162 763.43 490.357 763.445 490.466 763.445C491.451 763.445 492.287 763.312 492.974 763.047C493.662 762.797 494.24 762.367 494.708 761.758C495.193 761.164 495.607 760.344 495.951 759.297L497.755 754.375ZM492.576 731.641L499.162 751.328L500.287 755.898L497.169 757.492L487.841 731.641H492.576ZM548.567 753.32V757H530.497V753.32H548.567ZM531.411 722.875V757H526.887V722.875H531.411ZM546.176 737.547V741.227H530.497V737.547H546.176ZM548.333 722.875V726.578H530.497V722.875H548.333ZM560.461 757H556.125V728.969C556.125 727.141 556.453 725.602 557.109 724.352C557.781 723.086 558.742 722.133 559.992 721.492C561.242 720.836 562.727 720.508 564.445 720.508C564.945 720.508 565.445 720.539 565.945 720.602C566.461 720.664 566.961 720.758 567.445 720.883L567.211 724.422C566.883 724.344 566.508 724.289 566.086 724.258C565.68 724.227 565.273 724.211 564.867 724.211C563.945 724.211 563.148 724.398 562.477 724.773C561.82 725.133 561.32 725.664 560.977 726.367C560.633 727.07 560.461 727.938 560.461 728.969V757ZM566.086 731.641V734.969H552.117V731.641H566.086ZM574.172 757H569.836V729.438C569.836 727.516 570.203 725.891 570.938 724.562C571.688 723.234 572.758 722.227 574.148 721.539C575.539 720.852 577.188 720.508 579.094 720.508C580.234 720.508 581.344 720.648 582.422 720.93C583.5 721.195 584.609 721.531 585.75 721.938L585 725.594C584.297 725.312 583.469 725.047 582.516 724.797C581.562 724.531 580.531 724.398 579.422 724.398C577.562 724.398 576.219 724.82 575.391 725.664C574.578 726.492 574.172 727.75 574.172 729.438V757ZM579.352 731.641V734.969H565.828V731.641H579.352ZM587.883 731.641V757H583.547V731.641H587.883ZM605.589 753.906C606.621 753.906 607.574 753.695 608.449 753.273C609.324 752.852 610.042 752.273 610.605 751.539C611.167 750.789 611.488 749.938 611.566 748.984H615.691C615.613 750.484 615.105 751.883 614.167 753.18C613.246 754.461 612.035 755.5 610.535 756.297C609.035 757.078 607.386 757.469 605.589 757.469C603.683 757.469 602.019 757.133 600.597 756.461C599.191 755.789 598.019 754.867 597.082 753.695C596.16 752.523 595.464 751.18 594.996 749.664C594.542 748.133 594.316 746.516 594.316 744.812V743.828C594.316 742.125 594.542 740.516 594.996 739C595.464 737.469 596.16 736.117 597.082 734.945C598.019 733.773 599.191 732.852 600.597 732.18C602.019 731.508 603.683 731.172 605.589 731.172C607.574 731.172 609.308 731.578 610.792 732.391C612.277 733.188 613.441 734.281 614.285 735.672C615.144 737.047 615.613 738.609 615.691 740.359H611.566C611.488 739.312 611.191 738.367 610.675 737.523C610.175 736.68 609.488 736.008 608.613 735.508C607.753 734.992 606.746 734.734 605.589 734.734C604.261 734.734 603.144 735 602.238 735.531C601.347 736.047 600.636 736.75 600.105 737.641C599.589 738.516 599.214 739.492 598.98 740.57C598.761 741.633 598.652 742.719 598.652 743.828V744.812C598.652 745.922 598.761 747.016 598.98 748.094C599.199 749.172 599.566 750.148 600.082 751.023C600.613 751.898 601.324 752.602 602.214 753.133C603.121 753.648 604.246 753.906 605.589 753.906ZM625.757 731.641V757H621.398V731.641H625.757ZM621.069 724.914C621.069 724.211 621.28 723.617 621.702 723.133C622.14 722.648 622.78 722.406 623.624 722.406C624.452 722.406 625.085 722.648 625.523 723.133C625.976 723.617 626.202 724.211 626.202 724.914C626.202 725.586 625.976 726.164 625.523 726.648C625.085 727.117 624.452 727.352 623.624 727.352C622.78 727.352 622.14 727.117 621.702 726.648C621.28 726.164 621.069 725.586 621.069 724.914ZM643.721 757.469C641.956 757.469 640.354 757.172 638.917 756.578C637.495 755.969 636.268 755.117 635.237 754.023C634.221 752.93 633.44 751.633 632.893 750.133C632.346 748.633 632.073 746.992 632.073 745.211V744.227C632.073 742.164 632.378 740.328 632.987 738.719C633.596 737.094 634.424 735.719 635.471 734.594C636.518 733.469 637.706 732.617 639.034 732.039C640.362 731.461 641.737 731.172 643.159 731.172C644.971 731.172 646.534 731.484 647.846 732.109C649.174 732.734 650.26 733.609 651.104 734.734C651.948 735.844 652.573 737.156 652.979 738.672C653.385 740.172 653.588 741.812 653.588 743.594V745.539H634.651V742H649.253V741.672C649.19 740.547 648.956 739.453 648.549 738.391C648.159 737.328 647.534 736.453 646.674 735.766C645.815 735.078 644.643 734.734 643.159 734.734C642.174 734.734 641.268 734.945 640.44 735.367C639.612 735.773 638.901 736.383 638.307 737.195C637.713 738.008 637.253 739 636.924 740.172C636.596 741.344 636.432 742.695 636.432 744.227V745.211C636.432 746.414 636.596 747.547 636.924 748.609C637.268 749.656 637.76 750.578 638.401 751.375C639.057 752.172 639.846 752.797 640.768 753.25C641.706 753.703 642.768 753.93 643.956 753.93C645.487 753.93 646.784 753.617 647.846 752.992C648.909 752.367 649.838 751.531 650.635 750.484L653.26 752.57C652.713 753.398 652.018 754.188 651.174 754.938C650.331 755.688 649.292 756.297 648.057 756.766C646.838 757.234 645.393 757.469 643.721 757.469ZM663.467 737.055V757H659.131V731.641H663.232L663.467 737.055ZM662.436 743.359L660.631 743.289C660.647 741.555 660.904 739.953 661.404 738.484C661.904 737 662.607 735.711 663.514 734.617C664.42 733.523 665.498 732.68 666.748 732.086C668.014 731.477 669.412 731.172 670.943 731.172C672.193 731.172 673.318 731.344 674.318 731.688C675.318 732.016 676.17 732.547 676.873 733.281C677.592 734.016 678.139 734.969 678.514 736.141C678.889 737.297 679.076 738.711 679.076 740.383V757H674.717V740.336C674.717 739.008 674.522 737.945 674.131 737.148C673.74 736.336 673.17 735.75 672.42 735.391C671.67 735.016 670.748 734.828 669.654 734.828C668.576 734.828 667.592 735.055 666.701 735.508C665.826 735.961 665.068 736.586 664.428 737.383C663.803 738.18 663.311 739.094 662.951 740.125C662.607 741.141 662.436 742.219 662.436 743.359ZM696.291 753.906C697.322 753.906 698.275 753.695 699.15 753.273C700.025 752.852 700.744 752.273 701.306 751.539C701.869 750.789 702.189 749.938 702.267 748.984H706.392C706.314 750.484 705.806 751.883 704.869 753.18C703.947 754.461 702.736 755.5 701.236 756.297C699.736 757.078 698.088 757.469 696.291 757.469C694.384 757.469 692.72 757.133 691.298 756.461C689.892 755.789 688.72 754.867 687.783 753.695C686.861 752.523 686.166 751.18 685.697 749.664C685.244 748.133 685.017 746.516 685.017 744.812V743.828C685.017 742.125 685.244 740.516 685.697 739C686.166 737.469 686.861 736.117 687.783 734.945C688.72 733.773 689.892 732.852 691.298 732.18C692.72 731.508 694.384 731.172 696.291 731.172C698.275 731.172 700.009 731.578 701.494 732.391C702.978 733.188 704.142 734.281 704.986 735.672C705.845 737.047 706.314 738.609 706.392 740.359H702.267C702.189 739.312 701.892 738.367 701.377 737.523C700.877 736.68 700.189 736.008 699.314 735.508C698.455 734.992 697.447 734.734 696.291 734.734C694.963 734.734 693.845 735 692.939 735.531C692.048 736.047 691.338 736.75 690.806 737.641C690.291 738.516 689.916 739.492 689.681 740.57C689.463 741.633 689.353 742.719 689.353 743.828V744.812C689.353 745.922 689.463 747.016 689.681 748.094C689.9 749.172 690.267 750.148 690.783 751.023C691.314 751.898 692.025 752.602 692.916 753.133C693.822 753.648 694.947 753.906 696.291 753.906ZM718.872 754.375L725.927 731.641H730.568L720.396 760.914C720.161 761.539 719.849 762.211 719.458 762.93C719.083 763.664 718.599 764.359 718.005 765.016C717.411 765.672 716.693 766.203 715.849 766.609C715.021 767.031 714.028 767.242 712.872 767.242C712.528 767.242 712.091 767.195 711.56 767.102C711.028 767.008 710.653 766.93 710.435 766.867L710.411 763.352C710.536 763.367 710.732 763.383 710.997 763.398C711.278 763.43 711.474 763.445 711.583 763.445C712.568 763.445 713.403 763.312 714.091 763.047C714.778 762.797 715.357 762.367 715.825 761.758C716.31 761.164 716.724 760.344 717.068 759.297L718.872 754.375ZM713.693 731.641L720.278 751.328L721.403 755.898L718.286 757.492L708.958 731.641H713.693ZM732.501 754.703C732.501 753.969 732.727 753.352 733.18 752.852C733.649 752.336 734.321 752.078 735.196 752.078C736.071 752.078 736.735 752.336 737.188 752.852C737.657 753.352 737.891 753.969 737.891 754.703C737.891 755.422 737.657 756.031 737.188 756.531C736.735 757.031 736.071 757.281 735.196 757.281C734.321 757.281 733.649 757.031 733.18 756.531C732.727 756.031 732.501 755.422 732.501 754.703Z" fill="#A5DEE5"/>
</svg>
