<svg width="466" height="143" viewBox="0 0 466 143" fill="none" xmlns="http://www.w3.org/2000/svg">
<path d="M4.19998 58.3724L59.8282 4.69599C59.8946 4.63136 59.9608 4.56753 60.0267 4.50449C65.7782 -1.00032 69.1758 -0.404444 67.0916 9.04926L57.7335 45.5459C54.1997 57.9873 56.1471 64.5697 65.2051 70.0452C77.2807 76.2359 78.2048 81.1607 73.1881 86.3457C72.77 86.7778 72.3107 87.2117 71.8132 87.6483L16.6999 139.861C12.2539 144.361 9.83167 143.122 12.3854 132.845L22.0356 92.3143C23.0935 86.0477 23.2368 80.2826 12.7049 73.5452C6.09079 68.554 -4.30024 66.9874 4.19998 58.3724Z" fill="#A5DEE5"/>
<path d="M3.35759 59.1852L60.3576 4.18518M4.19998 58.3724C-4.30024 66.9874 6.09079 68.554 12.7049 73.5452C23.2368 80.2826 23.0935 86.0477 22.0356 92.3143M22.1912 91.6608L12.1912 133.661M16.3609 140.182L73.3609 86.182M67.1891 8.66918L57.1891 47.6692M67.0916 9.04926C69.1997 -0.512695 65.6997 -1.01281 59.8282 4.69599M16.6999 139.861C12.2539 144.361 9.83167 143.122 12.3854 132.845M71.8132 87.6483C78.2814 81.9726 78.287 76.7517 65.2051 70.0452C56.1471 64.5697 54.1997 57.9873 57.7335 45.5459" stroke="#A5DEE5"/>
<path d="M148.75 26.5V72H142.719V26.5H148.75ZM165.765 24V72H159.952V24H165.765ZM181.967 24V72H176.155V24H181.967ZM212.576 64.1875V38.1875H218.389V72H212.857L212.576 64.1875ZM213.67 57.0625L216.076 57C216.076 59.25 215.837 61.3333 215.357 63.25C214.899 65.1458 214.149 66.7917 213.107 68.1875C212.066 69.5833 210.701 70.6771 209.014 71.4688C207.326 72.2396 205.274 72.625 202.857 72.625C201.212 72.625 199.701 72.3854 198.326 71.9062C196.972 71.4271 195.805 70.6875 194.826 69.6875C193.847 68.6875 193.087 67.3854 192.545 65.7812C192.024 64.1771 191.764 62.25 191.764 60V38.1875H197.545V60.0625C197.545 61.5833 197.712 62.8438 198.045 63.8438C198.399 64.8229 198.868 65.6042 199.451 66.1875C200.055 66.75 200.722 67.1458 201.451 67.375C202.201 67.6042 202.972 67.7188 203.764 67.7188C206.222 67.7188 208.17 67.25 209.607 66.3125C211.045 65.3542 212.076 64.0729 212.701 62.4688C213.347 60.8438 213.67 59.0417 213.67 57.0625ZM233.591 44.9062V72H227.779V38.1875H233.279L233.591 44.9062ZM232.404 53.8125L229.716 53.7188C229.737 51.4062 230.039 49.2708 230.622 47.3125C231.206 45.3333 232.07 43.6146 233.216 42.1562C234.362 40.6979 235.789 39.5729 237.497 38.7812C239.206 37.9688 241.185 37.5625 243.435 37.5625C245.018 37.5625 246.477 37.7917 247.81 38.25C249.143 38.6875 250.3 39.3854 251.279 40.3438C252.258 41.3021 253.018 42.5312 253.56 44.0312C254.102 45.5312 254.372 47.3438 254.372 49.4688V72H248.591V49.75C248.591 47.9792 248.289 46.5625 247.685 45.5C247.102 44.4375 246.268 43.6667 245.185 43.1875C244.102 42.6875 242.831 42.4375 241.372 42.4375C239.664 42.4375 238.237 42.7396 237.091 43.3438C235.945 43.9479 235.029 44.7812 234.341 45.8438C233.654 46.9062 233.154 48.125 232.841 49.5C232.55 50.8542 232.404 52.2917 232.404 53.8125ZM254.31 50.625L250.435 51.8125C250.456 49.9583 250.758 48.1771 251.341 46.4688C251.945 44.7604 252.81 43.2396 253.935 41.9062C255.081 40.5729 256.487 39.5208 258.154 38.75C259.82 37.9583 261.727 37.5625 263.872 37.5625C265.685 37.5625 267.289 37.8021 268.685 38.2812C270.102 38.7604 271.289 39.5 272.247 40.5C273.227 41.4792 273.966 42.7396 274.466 44.2812C274.966 45.8229 275.216 47.6562 275.216 49.7812V72H269.404V49.7188C269.404 47.8229 269.102 46.3542 268.497 45.3125C267.914 44.25 267.081 43.5104 265.997 43.0938C264.935 42.6562 263.664 42.4375 262.185 42.4375C260.914 42.4375 259.789 42.6562 258.81 43.0938C257.831 43.5312 257.008 44.1354 256.341 44.9062C255.675 45.6562 255.164 46.5208 254.81 47.5C254.477 48.4792 254.31 49.5208 254.31 50.625ZM290.887 38.1875V72H285.075V38.1875H290.887ZM284.637 29.2188C284.637 28.2812 284.919 27.4896 285.481 26.8438C286.065 26.1979 286.919 25.875 288.044 25.875C289.148 25.875 289.992 26.1979 290.575 26.8438C291.179 27.4896 291.481 28.2812 291.481 29.2188C291.481 30.1146 291.179 30.8854 290.575 31.5312C289.992 32.1562 289.148 32.4688 288.044 32.4688C286.919 32.4688 286.065 32.1562 285.481 31.5312C284.919 30.8854 284.637 30.1146 284.637 29.2188ZM306.59 45.4062V72H300.809V38.1875H306.277L306.59 45.4062ZM305.215 53.8125L302.809 53.7188C302.83 51.4062 303.173 49.2708 303.84 47.3125C304.507 45.3333 305.444 43.6146 306.652 42.1562C307.861 40.6979 309.298 39.5729 310.965 38.7812C312.652 37.9688 314.517 37.5625 316.559 37.5625C318.225 37.5625 319.725 37.7917 321.059 38.25C322.392 38.6875 323.527 39.3958 324.465 40.375C325.423 41.3542 326.152 42.625 326.652 44.1875C327.152 45.7292 327.402 47.6146 327.402 49.8438V72H321.59V49.7812C321.59 48.0104 321.33 46.5938 320.809 45.5312C320.288 44.4479 319.527 43.6667 318.527 43.1875C317.527 42.6875 316.298 42.4375 314.84 42.4375C313.402 42.4375 312.09 42.7396 310.902 43.3438C309.736 43.9479 308.725 44.7812 307.871 45.8438C307.038 46.9062 306.382 48.125 305.902 49.5C305.444 50.8542 305.215 52.2917 305.215 53.8125ZM356.761 66.2188V48.8125C356.761 47.4792 356.49 46.3229 355.949 45.3438C355.428 44.3438 354.636 43.5729 353.574 43.0312C352.511 42.4896 351.199 42.2188 349.636 42.2188C348.178 42.2188 346.897 42.4688 345.792 42.9688C344.709 43.4688 343.855 44.125 343.23 44.9375C342.626 45.75 342.324 46.625 342.324 47.5625H336.542C336.542 46.3542 336.855 45.1562 337.48 43.9688C338.105 42.7812 339.001 41.7083 340.167 40.75C341.355 39.7708 342.772 39 344.417 38.4375C346.084 37.8542 347.938 37.5625 349.98 37.5625C352.438 37.5625 354.605 37.9792 356.48 38.8125C358.376 39.6458 359.855 40.9062 360.917 42.5938C362.001 44.2604 362.542 46.3542 362.542 48.875V64.625C362.542 65.75 362.636 66.9479 362.824 68.2188C363.032 69.4896 363.334 70.5833 363.73 71.5V72H357.699C357.407 71.3333 357.178 70.4479 357.011 69.3438C356.845 68.2188 356.761 67.1771 356.761 66.2188ZM357.761 51.5L357.824 55.5625H351.98C350.334 55.5625 348.865 55.6979 347.574 55.9688C346.282 56.2188 345.199 56.6042 344.324 57.125C343.449 57.6458 342.782 58.3021 342.324 59.0938C341.865 59.8646 341.636 60.7708 341.636 61.8125C341.636 62.875 341.876 63.8438 342.355 64.7188C342.834 65.5938 343.553 66.2917 344.511 66.8125C345.49 67.3125 346.688 67.5625 348.105 67.5625C349.876 67.5625 351.438 67.1875 352.792 66.4375C354.147 65.6875 355.22 64.7708 356.011 63.6875C356.824 62.6042 357.261 61.5521 357.324 60.5312L359.792 63.3125C359.647 64.1875 359.251 65.1562 358.605 66.2188C357.959 67.2812 357.095 68.3021 356.011 69.2812C354.949 70.2396 353.678 71.0417 352.199 71.6875C350.74 72.3125 349.095 72.625 347.261 72.625C344.97 72.625 342.959 72.1771 341.23 71.2812C339.522 70.3854 338.188 69.1875 337.23 67.6875C336.292 66.1667 335.824 64.4688 335.824 62.5938C335.824 60.7812 336.178 59.1875 336.886 57.8125C337.595 56.4167 338.615 55.2604 339.949 54.3438C341.282 53.4062 342.886 52.6979 344.761 52.2188C346.636 51.7396 348.73 51.5 351.042 51.5H357.761ZM386.432 38.1875V42.625H368.151V38.1875H386.432ZM374.339 29.9688H380.12V63.625C380.12 64.7708 380.297 65.6354 380.651 66.2188C381.005 66.8021 381.464 67.1875 382.026 67.375C382.589 67.5625 383.193 67.6562 383.839 67.6562C384.318 67.6562 384.818 67.6146 385.339 67.5312C385.88 67.4271 386.287 67.3438 386.557 67.2812L386.589 72C386.13 72.1458 385.526 72.2812 384.776 72.4062C384.047 72.5521 383.162 72.625 382.12 72.625C380.703 72.625 379.401 72.3438 378.214 71.7812C377.026 71.2188 376.078 70.2812 375.37 68.9688C374.682 67.6354 374.339 65.8438 374.339 63.5938V29.9688ZM407.885 72.625C405.531 72.625 403.395 72.2292 401.479 71.4375C399.583 70.625 397.947 69.4896 396.572 68.0312C395.218 66.5729 394.177 64.8438 393.447 62.8438C392.718 60.8438 392.354 58.6562 392.354 56.2812V54.9688C392.354 52.2188 392.76 49.7708 393.572 47.625C394.385 45.4583 395.489 43.625 396.885 42.125C398.281 40.625 399.864 39.4896 401.635 38.7188C403.406 37.9479 405.239 37.5625 407.135 37.5625C409.552 37.5625 411.635 37.9792 413.385 38.8125C415.156 39.6458 416.604 40.8125 417.729 42.3125C418.854 43.7917 419.687 45.5417 420.229 47.5625C420.77 49.5625 421.041 51.75 421.041 54.125V56.7188H395.791V52H415.26V51.5625C415.177 50.0625 414.864 48.6042 414.322 47.1875C413.802 45.7708 412.968 44.6042 411.822 43.6875C410.677 42.7708 409.114 42.3125 407.135 42.3125C405.822 42.3125 404.614 42.5938 403.51 43.1562C402.406 43.6979 401.458 44.5104 400.666 45.5938C399.875 46.6771 399.26 48 398.822 49.5625C398.385 51.125 398.166 52.9271 398.166 54.9688V56.2812C398.166 57.8854 398.385 59.3958 398.822 60.8125C399.281 62.2083 399.937 63.4375 400.791 64.5C401.666 65.5625 402.718 66.3958 403.947 67C405.197 67.6042 406.614 67.9062 408.197 67.9062C410.239 67.9062 411.968 67.4896 413.385 66.6562C414.802 65.8229 416.041 64.7083 417.104 63.3125L420.604 66.0938C419.875 67.1979 418.947 68.25 417.822 69.25C416.697 70.25 415.312 71.0625 413.666 71.6875C412.041 72.3125 410.114 72.625 407.885 72.625Z" fill="#A5DEE5"/>
<path d="M107.328 110.16V112H98.7969V110.16H107.328ZM99.2422 94.9375V112H96.9805V94.9375H99.2422ZM112.185 99.3203V112H110.006V99.3203H112.185ZM109.842 95.957C109.842 95.6055 109.947 95.3086 110.158 95.0664C110.377 94.8242 110.697 94.7031 111.119 94.7031C111.533 94.7031 111.849 94.8242 112.068 95.0664C112.295 95.3086 112.408 95.6055 112.408 95.957C112.408 96.293 112.295 96.582 112.068 96.8242C111.849 97.0586 111.533 97.1758 111.119 97.1758C110.697 97.1758 110.377 97.0586 110.158 96.8242C109.947 96.582 109.842 96.293 109.842 95.957ZM124.121 99.3203H126.089V111.73C126.089 112.848 125.863 113.801 125.41 114.59C124.957 115.379 124.324 115.977 123.511 116.383C122.707 116.797 121.777 117.004 120.722 117.004C120.285 117.004 119.769 116.934 119.175 116.793C118.589 116.66 118.011 116.43 117.441 116.102C116.878 115.781 116.406 115.348 116.023 114.801L117.16 113.512C117.691 114.152 118.246 114.598 118.824 114.848C119.41 115.098 119.988 115.223 120.558 115.223C121.246 115.223 121.839 115.094 122.339 114.836C122.839 114.578 123.226 114.195 123.5 113.688C123.781 113.188 123.921 112.57 123.921 111.836V102.109L124.121 99.3203ZM115.39 105.801V105.555C115.39 104.586 115.503 103.707 115.73 102.918C115.964 102.121 116.296 101.438 116.726 100.867C117.164 100.297 117.691 99.8594 118.308 99.5547C118.925 99.2422 119.621 99.0859 120.394 99.0859C121.191 99.0859 121.886 99.2266 122.48 99.5078C123.082 99.7812 123.589 100.184 124.003 100.715C124.425 101.238 124.757 101.871 125 102.613C125.242 103.355 125.41 104.195 125.503 105.133V106.211C125.417 107.141 125.25 107.977 125 108.719C124.757 109.461 124.425 110.094 124.003 110.617C123.589 111.141 123.082 111.543 122.48 111.824C121.878 112.098 121.175 112.234 120.371 112.234C119.613 112.234 118.925 112.074 118.308 111.754C117.699 111.434 117.175 110.984 116.738 110.406C116.3 109.828 115.964 109.148 115.73 108.367C115.503 107.578 115.39 106.723 115.39 105.801ZM117.558 105.555V105.801C117.558 106.434 117.621 107.027 117.746 107.582C117.878 108.137 118.078 108.625 118.343 109.047C118.617 109.469 118.964 109.801 119.386 110.043C119.808 110.277 120.312 110.395 120.898 110.395C121.617 110.395 122.21 110.242 122.679 109.938C123.148 109.633 123.519 109.23 123.792 108.73C124.074 108.23 124.292 107.688 124.449 107.102V104.277C124.363 103.848 124.23 103.434 124.05 103.035C123.878 102.629 123.652 102.27 123.371 101.957C123.097 101.637 122.757 101.383 122.351 101.195C121.945 101.008 121.468 100.914 120.921 100.914C120.328 100.914 119.816 101.039 119.386 101.289C118.964 101.531 118.617 101.867 118.343 102.297C118.078 102.719 117.878 103.211 117.746 103.773C117.621 104.328 117.558 104.922 117.558 105.555ZM131.79 94V112H129.622V94H131.79ZM131.275 105.18L130.372 105.145C130.38 104.277 130.509 103.477 130.759 102.742C131.009 102 131.361 101.355 131.814 100.809C132.267 100.262 132.806 99.8398 133.431 99.543C134.064 99.2383 134.763 99.0859 135.529 99.0859C136.154 99.0859 136.716 99.1719 137.216 99.3438C137.716 99.5078 138.142 99.7734 138.493 100.141C138.853 100.508 139.126 100.984 139.314 101.57C139.501 102.148 139.595 102.855 139.595 103.691V112H137.415V103.668C137.415 103.004 137.318 102.473 137.122 102.074C136.927 101.668 136.642 101.375 136.267 101.195C135.892 101.008 135.431 100.914 134.884 100.914C134.345 100.914 133.853 101.027 133.408 101.254C132.97 101.48 132.591 101.793 132.271 102.191C131.958 102.59 131.712 103.047 131.533 103.562C131.361 104.07 131.275 104.609 131.275 105.18ZM148.39 99.3203V100.984H141.534V99.3203H148.39ZM143.855 96.2383H146.022V108.859C146.022 109.289 146.089 109.613 146.222 109.832C146.355 110.051 146.526 110.195 146.737 110.266C146.948 110.336 147.175 110.371 147.417 110.371C147.597 110.371 147.784 110.355 147.98 110.324C148.183 110.285 148.335 110.254 148.437 110.23L148.448 112C148.276 112.055 148.05 112.105 147.769 112.152C147.495 112.207 147.163 112.234 146.772 112.234C146.241 112.234 145.753 112.129 145.308 111.918C144.862 111.707 144.507 111.355 144.241 110.863C143.983 110.363 143.855 109.691 143.855 108.848V96.2383ZM162.674 99.3203V100.984H155.819V99.3203H162.674ZM158.139 96.2383H160.307V108.859C160.307 109.289 160.374 109.613 160.506 109.832C160.639 110.051 160.811 110.195 161.022 110.266C161.233 110.336 161.46 110.371 161.702 110.371C161.881 110.371 162.069 110.355 162.264 110.324C162.467 110.285 162.62 110.254 162.721 110.23L162.733 112C162.561 112.055 162.335 112.105 162.053 112.152C161.78 112.207 161.448 112.234 161.057 112.234C160.526 112.234 160.038 112.129 159.592 111.918C159.147 111.707 158.792 111.355 158.526 110.863C158.268 110.363 158.139 109.691 158.139 108.848V96.2383ZM167.625 94V112H165.457V94H167.625ZM167.11 105.18L166.207 105.145C166.215 104.277 166.344 103.477 166.594 102.742C166.844 102 167.196 101.355 167.649 100.809C168.102 100.262 168.641 99.8398 169.266 99.543C169.899 99.2383 170.598 99.0859 171.364 99.0859C171.989 99.0859 172.551 99.1719 173.051 99.3438C173.551 99.5078 173.977 99.7734 174.328 100.141C174.688 100.508 174.961 100.984 175.149 101.57C175.336 102.148 175.43 102.855 175.43 103.691V112H173.25V103.668C173.25 103.004 173.153 102.473 172.957 102.074C172.762 101.668 172.477 101.375 172.102 101.195C171.727 101.008 171.266 100.914 170.719 100.914C170.18 100.914 169.688 101.027 169.243 101.254C168.805 101.48 168.426 101.793 168.106 102.191C167.793 102.59 167.547 103.047 167.368 103.562C167.196 104.07 167.11 104.609 167.11 105.18ZM184.178 112.234C183.295 112.234 182.494 112.086 181.775 111.789C181.065 111.484 180.451 111.059 179.936 110.512C179.428 109.965 179.037 109.316 178.764 108.566C178.49 107.816 178.354 106.996 178.354 106.105V105.613C178.354 104.582 178.506 103.664 178.811 102.859C179.115 102.047 179.529 101.359 180.053 100.797C180.576 100.234 181.17 99.8086 181.834 99.5195C182.498 99.2305 183.186 99.0859 183.897 99.0859C184.803 99.0859 185.584 99.2422 186.24 99.5547C186.904 99.8672 187.447 100.305 187.869 100.867C188.291 101.422 188.604 102.078 188.807 102.836C189.01 103.586 189.111 104.406 189.111 105.297V106.27H179.643V104.5H186.943V104.336C186.912 103.773 186.795 103.227 186.592 102.695C186.397 102.164 186.084 101.727 185.654 101.383C185.225 101.039 184.639 100.867 183.897 100.867C183.404 100.867 182.951 100.973 182.537 101.184C182.123 101.387 181.768 101.691 181.471 102.098C181.174 102.504 180.943 103 180.779 103.586C180.615 104.172 180.533 104.848 180.533 105.613V106.105C180.533 106.707 180.615 107.273 180.779 107.805C180.951 108.328 181.197 108.789 181.518 109.188C181.846 109.586 182.24 109.898 182.701 110.125C183.17 110.352 183.701 110.465 184.295 110.465C185.061 110.465 185.709 110.309 186.24 109.996C186.772 109.684 187.236 109.266 187.635 108.742L188.947 109.785C188.674 110.199 188.326 110.594 187.904 110.969C187.482 111.344 186.963 111.648 186.346 111.883C185.736 112.117 185.014 112.234 184.178 112.234ZM202.892 106.844L206.279 94.9375H207.92L206.97 99.5664L203.326 112H201.697L202.892 106.844ZM199.388 94.9375L202.084 106.609L202.892 112H201.275L197.138 94.9375H199.388ZM212.302 106.598L214.939 94.9375H217.201L213.076 112H211.459L212.302 106.598ZM208.166 94.9375L211.459 106.844L212.654 112H211.025L207.509 99.5664L206.548 94.9375H208.166ZM226.699 109.832V103.305C226.699 102.805 226.597 102.371 226.394 102.004C226.199 101.629 225.902 101.34 225.503 101.137C225.105 100.934 224.613 100.832 224.027 100.832C223.48 100.832 222.999 100.926 222.585 101.113C222.179 101.301 221.859 101.547 221.624 101.852C221.398 102.156 221.285 102.484 221.285 102.836H219.117C219.117 102.383 219.234 101.934 219.468 101.488C219.702 101.043 220.038 100.641 220.476 100.281C220.921 99.9141 221.452 99.625 222.07 99.4141C222.695 99.1953 223.39 99.0859 224.156 99.0859C225.077 99.0859 225.89 99.2422 226.593 99.5547C227.304 99.8672 227.859 100.34 228.257 100.973C228.663 101.598 228.867 102.383 228.867 103.328V109.234C228.867 109.656 228.902 110.105 228.972 110.582C229.05 111.059 229.163 111.469 229.312 111.812V112H227.05C226.941 111.75 226.855 111.418 226.792 111.004C226.73 110.582 226.699 110.191 226.699 109.832ZM227.074 104.312L227.097 105.836H224.906C224.288 105.836 223.738 105.887 223.253 105.988C222.769 106.082 222.363 106.227 222.035 106.422C221.706 106.617 221.456 106.863 221.285 107.16C221.113 107.449 221.027 107.789 221.027 108.18C221.027 108.578 221.117 108.941 221.296 109.27C221.476 109.598 221.745 109.859 222.105 110.055C222.472 110.242 222.921 110.336 223.452 110.336C224.117 110.336 224.702 110.195 225.21 109.914C225.718 109.633 226.12 109.289 226.417 108.883C226.722 108.477 226.886 108.082 226.91 107.699L227.835 108.742C227.781 109.07 227.632 109.434 227.39 109.832C227.148 110.23 226.824 110.613 226.417 110.98C226.019 111.34 225.542 111.641 224.988 111.883C224.441 112.117 223.824 112.234 223.136 112.234C222.277 112.234 221.523 112.066 220.874 111.73C220.234 111.395 219.734 110.945 219.374 110.383C219.023 109.812 218.847 109.176 218.847 108.473C218.847 107.793 218.98 107.195 219.245 106.68C219.511 106.156 219.894 105.723 220.394 105.379C220.894 105.027 221.495 104.762 222.199 104.582C222.902 104.402 223.687 104.312 224.554 104.312H227.074ZM235.892 110.688L239.419 99.3203H241.739L236.653 113.957C236.536 114.27 236.38 114.605 236.185 114.965C235.997 115.332 235.755 115.68 235.458 116.008C235.161 116.336 234.802 116.602 234.38 116.805C233.966 117.016 233.47 117.121 232.892 117.121C232.72 117.121 232.501 117.098 232.235 117.051C231.97 117.004 231.782 116.965 231.673 116.934L231.661 115.176C231.724 115.184 231.821 115.191 231.954 115.199C232.095 115.215 232.193 115.223 232.247 115.223C232.739 115.223 233.157 115.156 233.501 115.023C233.845 114.898 234.134 114.684 234.368 114.379C234.61 114.082 234.818 113.672 234.989 113.148L235.892 110.688ZM233.302 99.3203L236.595 109.164L237.157 111.449L235.599 112.246L230.935 99.3203H233.302ZM255.438 99.3203V100.984H248.583V99.3203H255.438ZM250.903 96.2383H253.071V108.859C253.071 109.289 253.137 109.613 253.27 109.832C253.403 110.051 253.575 110.195 253.786 110.266C253.997 110.336 254.223 110.371 254.465 110.371C254.645 110.371 254.833 110.355 255.028 110.324C255.231 110.285 255.383 110.254 255.485 110.23L255.497 112C255.325 112.055 255.098 112.105 254.817 112.152C254.544 112.207 254.212 112.234 253.821 112.234C253.29 112.234 252.801 112.129 252.356 111.918C251.911 111.707 251.555 111.355 251.29 110.863C251.032 110.363 250.903 109.691 250.903 108.848V96.2383ZM257.413 105.801V105.531C257.413 104.617 257.545 103.77 257.811 102.988C258.077 102.199 258.459 101.516 258.959 100.938C259.459 100.352 260.065 99.8984 260.776 99.5781C261.487 99.25 262.284 99.0859 263.166 99.0859C264.057 99.0859 264.858 99.25 265.569 99.5781C266.288 99.8984 266.897 100.352 267.397 100.938C267.905 101.516 268.291 102.199 268.557 102.988C268.823 103.77 268.955 104.617 268.955 105.531V105.801C268.955 106.715 268.823 107.562 268.557 108.344C268.291 109.125 267.905 109.809 267.397 110.395C266.897 110.973 266.291 111.426 265.58 111.754C264.877 112.074 264.08 112.234 263.19 112.234C262.299 112.234 261.498 112.074 260.788 111.754C260.077 111.426 259.467 110.973 258.959 110.395C258.459 109.809 258.077 109.125 257.811 108.344C257.545 107.562 257.413 106.715 257.413 105.801ZM259.58 105.531V105.801C259.58 106.434 259.655 107.031 259.803 107.594C259.952 108.148 260.174 108.641 260.471 109.07C260.776 109.5 261.155 109.84 261.608 110.09C262.061 110.332 262.588 110.453 263.19 110.453C263.784 110.453 264.303 110.332 264.748 110.09C265.202 109.84 265.577 109.5 265.873 109.07C266.17 108.641 266.393 108.148 266.541 107.594C266.698 107.031 266.776 106.434 266.776 105.801V105.531C266.776 104.906 266.698 104.316 266.541 103.762C266.393 103.199 266.166 102.703 265.862 102.273C265.565 101.836 265.19 101.492 264.737 101.242C264.291 100.992 263.768 100.867 263.166 100.867C262.573 100.867 262.049 100.992 261.596 101.242C261.151 101.492 260.776 101.836 260.471 102.273C260.174 102.703 259.952 103.199 259.803 103.762C259.655 104.316 259.58 104.906 259.58 105.531ZM289.275 110.16V112H280.24V110.16H289.275ZM280.697 94.9375V112H278.435V94.9375H280.697ZM288.08 102.273V104.113H280.24V102.273H288.08ZM289.158 94.9375V96.7891H280.24V94.9375H289.158ZM294.156 102.027V112H291.988V99.3203H294.039L294.156 102.027ZM293.64 105.18L292.738 105.145C292.746 104.277 292.875 103.477 293.125 102.742C293.375 102 293.726 101.355 294.179 100.809C294.633 100.262 295.172 99.8398 295.797 99.543C296.429 99.2383 297.129 99.0859 297.894 99.0859C298.519 99.0859 299.082 99.1719 299.582 99.3438C300.082 99.5078 300.508 99.7734 300.859 100.141C301.218 100.508 301.492 100.984 301.679 101.57C301.867 102.148 301.961 102.855 301.961 103.691V112H299.781V103.668C299.781 103.004 299.683 102.473 299.488 102.074C299.293 101.668 299.008 101.375 298.633 101.195C298.258 101.008 297.797 100.914 297.25 100.914C296.711 100.914 296.218 101.027 295.773 101.254C295.336 101.48 294.957 101.793 294.636 102.191C294.324 102.59 294.078 103.047 293.898 103.562C293.726 104.07 293.64 104.609 293.64 105.18ZM310.755 112.234C309.872 112.234 309.072 112.086 308.353 111.789C307.642 111.484 307.029 111.059 306.513 110.512C306.005 109.965 305.615 109.316 305.341 108.566C305.068 107.816 304.931 106.996 304.931 106.105V105.613C304.931 104.582 305.083 103.664 305.388 102.859C305.693 102.047 306.107 101.359 306.63 100.797C307.154 100.234 307.747 99.8086 308.412 99.5195C309.076 99.2305 309.763 99.0859 310.474 99.0859C311.38 99.0859 312.162 99.2422 312.818 99.5547C313.482 99.8672 314.025 100.305 314.447 100.867C314.869 101.422 315.181 102.078 315.384 102.836C315.587 103.586 315.689 104.406 315.689 105.297V106.27H306.22V104.5H313.521V104.336C313.49 103.773 313.372 103.227 313.169 102.695C312.974 102.164 312.662 101.727 312.232 101.383C311.802 101.039 311.216 100.867 310.474 100.867C309.982 100.867 309.529 100.973 309.115 101.184C308.701 101.387 308.345 101.691 308.048 102.098C307.751 102.504 307.521 103 307.357 103.586C307.193 104.172 307.111 104.848 307.111 105.613V106.105C307.111 106.707 307.193 107.273 307.357 107.805C307.529 108.328 307.775 108.789 308.095 109.188C308.423 109.586 308.818 109.898 309.279 110.125C309.747 110.352 310.279 110.465 310.872 110.465C311.638 110.465 312.287 110.309 312.818 109.996C313.349 109.684 313.814 109.266 314.212 108.742L315.525 109.785C315.251 110.199 314.904 110.594 314.482 110.969C314.06 111.344 313.54 111.648 312.923 111.883C312.314 112.117 311.591 112.234 310.755 112.234ZM320.628 101.312V112H318.46V99.3203H320.57L320.628 101.312ZM324.589 99.25L324.577 101.266C324.398 101.227 324.226 101.203 324.062 101.195C323.905 101.18 323.726 101.172 323.523 101.172C323.023 101.172 322.581 101.25 322.198 101.406C321.816 101.562 321.491 101.781 321.226 102.062C320.96 102.344 320.749 102.68 320.593 103.07C320.445 103.453 320.347 103.875 320.3 104.336L319.691 104.688C319.691 103.922 319.765 103.203 319.913 102.531C320.07 101.859 320.308 101.266 320.628 100.75C320.948 100.227 321.355 99.8203 321.847 99.5312C322.347 99.2344 322.941 99.0859 323.628 99.0859C323.784 99.0859 323.964 99.1055 324.167 99.1445C324.37 99.1758 324.511 99.2109 324.589 99.25ZM334.813 99.3203H336.782V111.73C336.782 112.848 336.556 113.801 336.102 114.59C335.649 115.379 335.017 115.977 334.204 116.383C333.399 116.797 332.47 117.004 331.415 117.004C330.977 117.004 330.462 116.934 329.868 116.793C329.282 116.66 328.704 116.43 328.134 116.102C327.571 115.781 327.099 115.348 326.716 114.801L327.852 113.512C328.384 114.152 328.938 114.598 329.517 114.848C330.102 115.098 330.681 115.223 331.251 115.223C331.938 115.223 332.532 115.094 333.032 114.836C333.532 114.578 333.919 114.195 334.192 113.688C334.474 113.188 334.614 112.57 334.614 111.836V102.109L334.813 99.3203ZM326.083 105.801V105.555C326.083 104.586 326.196 103.707 326.423 102.918C326.657 102.121 326.989 101.438 327.419 100.867C327.856 100.297 328.384 99.8594 329.001 99.5547C329.618 99.2422 330.313 99.0859 331.087 99.0859C331.884 99.0859 332.579 99.2266 333.173 99.5078C333.774 99.7812 334.282 100.184 334.696 100.715C335.118 101.238 335.45 101.871 335.692 102.613C335.935 103.355 336.102 104.195 336.196 105.133V106.211C336.11 107.141 335.942 107.977 335.692 108.719C335.45 109.461 335.118 110.094 334.696 110.617C334.282 111.141 333.774 111.543 333.173 111.824C332.571 112.098 331.868 112.234 331.063 112.234C330.306 112.234 329.618 112.074 329.001 111.754C328.392 111.434 327.868 110.984 327.431 110.406C326.993 109.828 326.657 109.148 326.423 108.367C326.196 107.578 326.083 106.723 326.083 105.801ZM328.251 105.555V105.801C328.251 106.434 328.313 107.027 328.438 107.582C328.571 108.137 328.77 108.625 329.036 109.047C329.31 109.469 329.657 109.801 330.079 110.043C330.501 110.277 331.005 110.395 331.591 110.395C332.31 110.395 332.903 110.242 333.372 109.938C333.841 109.633 334.212 109.23 334.485 108.73C334.767 108.23 334.985 107.688 335.142 107.102V104.277C335.056 103.848 334.923 103.434 334.743 103.035C334.571 102.629 334.345 102.27 334.063 101.957C333.79 101.637 333.45 101.383 333.044 101.195C332.638 101.008 332.161 100.914 331.614 100.914C331.02 100.914 330.509 101.039 330.079 101.289C329.657 101.531 329.31 101.867 329.036 102.297C328.77 102.719 328.571 103.211 328.438 103.773C328.313 104.328 328.251 104.922 328.251 105.555ZM343.878 110.688L347.405 99.3203H349.725L344.639 113.957C344.522 114.27 344.366 114.605 344.171 114.965C343.983 115.332 343.741 115.68 343.444 116.008C343.147 116.336 342.788 116.602 342.366 116.805C341.952 117.016 341.456 117.121 340.878 117.121C340.706 117.121 340.487 117.098 340.221 117.051C339.956 117.004 339.768 116.965 339.659 116.934L339.647 115.176C339.71 115.184 339.807 115.191 339.94 115.199C340.081 115.215 340.178 115.223 340.233 115.223C340.725 115.223 341.143 115.156 341.487 115.023C341.831 114.898 342.12 114.684 342.354 114.379C342.596 114.082 342.803 113.672 342.975 113.148L343.878 110.688ZM341.288 99.3203L344.581 109.164L345.143 111.449L343.585 112.246L338.921 99.3203H341.288ZM369.283 110.16V112H360.248V110.16H369.283ZM360.705 94.9375V112H358.444V94.9375H360.705ZM368.088 102.273V104.113H360.248V102.273H368.088ZM369.166 94.9375V96.7891H360.248V94.9375H369.166ZM375.23 112H373.062V97.9844C373.062 97.0703 373.227 96.3008 373.555 95.6758C373.891 95.043 374.371 94.5664 374.996 94.2461C375.621 93.918 376.363 93.7539 377.223 93.7539C377.473 93.7539 377.723 93.7695 377.973 93.8008C378.23 93.832 378.48 93.8789 378.723 93.9414L378.605 95.7109C378.441 95.6719 378.254 95.6445 378.043 95.6289C377.84 95.6133 377.637 95.6055 377.434 95.6055C376.973 95.6055 376.574 95.6992 376.238 95.8867C375.91 96.0664 375.66 96.332 375.488 96.6836C375.316 97.0352 375.23 97.4688 375.23 97.9844V112ZM378.043 99.3203V100.984H371.059V99.3203H378.043ZM382.086 112H379.918V98.2188C379.918 97.2578 380.102 96.4453 380.469 95.7812C380.844 95.1172 381.379 94.6133 382.074 94.2695C382.77 93.9258 383.594 93.7539 384.547 93.7539C385.117 93.7539 385.672 93.8242 386.211 93.9648C386.75 94.0977 387.305 94.2656 387.875 94.4688L387.5 96.2969C387.148 96.1562 386.734 96.0234 386.258 95.8984C385.781 95.7656 385.266 95.6992 384.711 95.6992C383.781 95.6992 383.109 95.9102 382.695 96.332C382.289 96.7461 382.086 97.375 382.086 98.2188V112ZM384.676 99.3203V100.984H377.914V99.3203H384.676ZM388.941 99.3203V112H386.773V99.3203H388.941ZM397.795 110.453C398.31 110.453 398.787 110.348 399.224 110.137C399.662 109.926 400.021 109.637 400.302 109.27C400.584 108.895 400.744 108.469 400.783 107.992H402.845C402.806 108.742 402.552 109.441 402.084 110.09C401.623 110.73 401.017 111.25 400.267 111.648C399.517 112.039 398.693 112.234 397.795 112.234C396.842 112.234 396.01 112.066 395.299 111.73C394.595 111.395 394.01 110.934 393.541 110.348C393.08 109.762 392.732 109.09 392.498 108.332C392.271 107.566 392.158 106.758 392.158 105.906V105.414C392.158 104.562 392.271 103.758 392.498 103C392.732 102.234 393.08 101.559 393.541 100.973C394.01 100.387 394.595 99.9258 395.299 99.5898C396.01 99.2539 396.842 99.0859 397.795 99.0859C398.787 99.0859 399.654 99.2891 400.396 99.6953C401.138 100.094 401.72 100.641 402.142 101.336C402.572 102.023 402.806 102.805 402.845 103.68H400.783C400.744 103.156 400.595 102.684 400.338 102.262C400.088 101.84 399.744 101.504 399.306 101.254C398.877 100.996 398.373 100.867 397.795 100.867C397.131 100.867 396.572 101 396.119 101.266C395.674 101.523 395.318 101.875 395.052 102.32C394.795 102.758 394.607 103.246 394.49 103.785C394.381 104.316 394.326 104.859 394.326 105.414V105.906C394.326 106.461 394.381 107.008 394.49 107.547C394.599 108.086 394.783 108.574 395.041 109.012C395.306 109.449 395.662 109.801 396.107 110.066C396.56 110.324 397.123 110.453 397.795 110.453ZM407.878 99.3203V112H405.699V99.3203H407.878ZM405.535 95.957C405.535 95.6055 405.64 95.3086 405.851 95.0664C406.07 94.8242 406.39 94.7031 406.812 94.7031C407.226 94.7031 407.543 94.8242 407.761 95.0664C407.988 95.3086 408.101 95.6055 408.101 95.957C408.101 96.293 407.988 96.582 407.761 96.8242C407.543 97.0586 407.226 97.1758 406.812 97.1758C406.39 97.1758 406.07 97.0586 405.851 96.8242C405.64 96.582 405.535 96.293 405.535 95.957ZM416.861 112.234C415.978 112.234 415.177 112.086 414.458 111.789C413.747 111.484 413.134 111.059 412.618 110.512C412.111 109.965 411.72 109.316 411.447 108.566C411.173 107.816 411.036 106.996 411.036 106.105V105.613C411.036 104.582 411.189 103.664 411.493 102.859C411.798 102.047 412.212 101.359 412.736 100.797C413.259 100.234 413.853 99.8086 414.517 99.5195C415.181 99.2305 415.868 99.0859 416.579 99.0859C417.486 99.0859 418.267 99.2422 418.923 99.5547C419.587 99.8672 420.13 100.305 420.552 100.867C420.974 101.422 421.286 102.078 421.49 102.836C421.693 103.586 421.794 104.406 421.794 105.297V106.27H412.325V104.5H419.626V104.336C419.595 103.773 419.478 103.227 419.275 102.695C419.079 102.164 418.767 101.727 418.337 101.383C417.908 101.039 417.322 100.867 416.579 100.867C416.087 100.867 415.634 100.973 415.22 101.184C414.806 101.387 414.45 101.691 414.154 102.098C413.857 102.504 413.626 103 413.462 103.586C413.298 104.172 413.216 104.848 413.216 105.613V106.105C413.216 106.707 413.298 107.273 413.462 107.805C413.634 108.328 413.88 108.789 414.2 109.188C414.529 109.586 414.923 109.898 415.384 110.125C415.853 110.352 416.384 110.465 416.978 110.465C417.743 110.465 418.392 110.309 418.923 109.996C419.454 109.684 419.919 109.266 420.318 108.742L421.63 109.785C421.357 110.199 421.009 110.594 420.587 110.969C420.165 111.344 419.646 111.648 419.029 111.883C418.419 112.117 417.697 112.234 416.861 112.234ZM426.733 102.027V112H424.565V99.3203H426.616L426.733 102.027ZM426.218 105.18L425.315 105.145C425.323 104.277 425.452 103.477 425.702 102.742C425.952 102 426.304 101.355 426.757 100.809C427.21 100.262 427.749 99.8398 428.374 99.543C429.007 99.2383 429.706 99.0859 430.472 99.0859C431.097 99.0859 431.659 99.1719 432.159 99.3438C432.659 99.5078 433.085 99.7734 433.437 100.141C433.796 100.508 434.069 100.984 434.257 101.57C434.444 102.148 434.538 102.855 434.538 103.691V112H432.358V103.668C432.358 103.004 432.261 102.473 432.065 102.074C431.87 101.668 431.585 101.375 431.21 101.195C430.835 101.008 430.374 100.914 429.827 100.914C429.288 100.914 428.796 101.027 428.351 101.254C427.913 101.48 427.534 101.793 427.214 102.191C426.901 102.59 426.655 103.047 426.476 103.562C426.304 104.07 426.218 104.609 426.218 105.18ZM443.145 110.453C443.661 110.453 444.138 110.348 444.575 110.137C445.013 109.926 445.372 109.637 445.653 109.27C445.934 108.895 446.095 108.469 446.134 107.992H448.196C448.157 108.742 447.903 109.441 447.434 110.09C446.973 110.73 446.368 111.25 445.618 111.648C444.868 112.039 444.044 112.234 443.145 112.234C442.192 112.234 441.36 112.066 440.649 111.73C439.946 111.395 439.36 110.934 438.891 110.348C438.43 109.762 438.083 109.09 437.848 108.332C437.622 107.566 437.509 106.758 437.509 105.906V105.414C437.509 104.562 437.622 103.758 437.848 103C438.083 102.234 438.43 101.559 438.891 100.973C439.36 100.387 439.946 99.9258 440.649 99.5898C441.36 99.2539 442.192 99.0859 443.145 99.0859C444.138 99.0859 445.005 99.2891 445.747 99.6953C446.489 100.094 447.071 100.641 447.493 101.336C447.923 102.023 448.157 102.805 448.196 103.68H446.134C446.095 103.156 445.946 102.684 445.688 102.262C445.438 101.84 445.095 101.504 444.657 101.254C444.227 100.996 443.723 100.867 443.145 100.867C442.481 100.867 441.923 101 441.47 101.266C441.024 101.523 440.669 101.875 440.403 102.32C440.145 102.758 439.958 103.246 439.841 103.785C439.731 104.316 439.677 104.859 439.677 105.414V105.906C439.677 106.461 439.731 107.008 439.841 107.547C439.95 108.086 440.134 108.574 440.391 109.012C440.657 109.449 441.013 109.801 441.458 110.066C441.911 110.324 442.473 110.453 443.145 110.453ZM454.436 110.688L457.963 99.3203H460.284L455.198 113.957C455.081 114.27 454.924 114.605 454.729 114.965C454.542 115.332 454.299 115.68 454.003 116.008C453.706 116.336 453.346 116.602 452.924 116.805C452.51 117.016 452.014 117.121 451.436 117.121C451.264 117.121 451.045 117.098 450.78 117.051C450.514 117.004 450.327 116.965 450.217 116.934L450.206 115.176C450.268 115.184 450.366 115.191 450.499 115.199C450.639 115.215 450.737 115.223 450.792 115.223C451.284 115.223 451.702 115.156 452.045 115.023C452.389 114.898 452.678 114.684 452.913 114.379C453.155 114.082 453.362 113.672 453.534 113.148L454.436 110.688ZM451.846 99.3203L455.139 109.164L455.702 111.449L454.143 112.246L449.479 99.3203H451.846ZM461.25 110.852C461.25 110.484 461.364 110.176 461.59 109.926C461.825 109.668 462.16 109.539 462.598 109.539C463.035 109.539 463.367 109.668 463.594 109.926C463.828 110.176 463.946 110.484 463.946 110.852C463.946 111.211 463.828 111.516 463.594 111.766C463.367 112.016 463.035 112.141 462.598 112.141C462.16 112.141 461.825 112.016 461.59 111.766C461.364 111.516 461.25 111.211 461.25 110.852Z" fill="#A5DEE5"/>
</svg>
