<svg width="434" height="143" viewBox="0 0 434 143" fill="none" xmlns="http://www.w3.org/2000/svg">
<path d="M4.19998 58.3724L59.8282 4.69599C59.8946 4.63136 59.9608 4.56753 60.0267 4.50449C65.7782 -1.00032 69.1758 -0.404444 67.0916 9.04926L57.7335 45.5459C54.1997 57.9873 56.1471 64.5697 65.2051 70.0452C77.2807 76.2359 78.2048 81.1607 73.1881 86.3457C72.77 86.7778 72.3107 87.2117 71.8132 87.6483L16.6999 139.861C12.2539 144.361 9.83167 143.122 12.3854 132.845L22.0356 92.3143C23.0935 86.0477 23.2368 80.2826 12.7049 73.5452C6.09079 68.554 -4.30024 66.9874 4.19998 58.3724Z" fill="#A5DEE5"/>
<path d="M3.35759 59.1852L60.3576 4.18518M4.19998 58.3724C-4.30024 66.9874 6.09079 68.554 12.7049 73.5452C23.2368 80.2826 23.0935 86.0477 22.0356 92.3143M22.1912 91.6608L12.1912 133.661M16.3609 140.182L73.3609 86.182M67.1891 8.66918L57.1891 47.6692M67.0916 9.04926C69.1997 -0.512695 65.6997 -1.01281 59.8282 4.69599M16.6999 139.861C12.2539 144.361 9.83167 143.122 12.3854 132.845M71.8132 87.6483C78.2814 81.9726 78.287 76.7517 65.2051 70.0452C56.1471 64.5697 54.1997 57.9873 57.7335 45.5459" stroke="#A5DEE5"/>
<path d="M112.75 47.5V93H106.719V47.5H112.75ZM129.765 45V93H123.952V45H129.765ZM145.967 45V93H140.155V45H145.967ZM176.576 85.1875V59.1875H182.389V93H176.857L176.576 85.1875ZM177.67 78.0625L180.076 78C180.076 80.25 179.837 82.3333 179.357 84.25C178.899 86.1458 178.149 87.7917 177.107 89.1875C176.066 90.5833 174.701 91.6771 173.014 92.4688C171.326 93.2396 169.274 93.625 166.857 93.625C165.212 93.625 163.701 93.3854 162.326 92.9062C160.972 92.4271 159.805 91.6875 158.826 90.6875C157.847 89.6875 157.087 88.3854 156.545 86.7812C156.024 85.1771 155.764 83.25 155.764 81V59.1875H161.545V81.0625C161.545 82.5833 161.712 83.8438 162.045 84.8438C162.399 85.8229 162.868 86.6042 163.451 87.1875C164.055 87.75 164.722 88.1458 165.451 88.375C166.201 88.6042 166.972 88.7188 167.764 88.7188C170.222 88.7188 172.17 88.25 173.607 87.3125C175.045 86.3542 176.076 85.0729 176.701 83.4688C177.347 81.8438 177.67 80.0417 177.67 78.0625ZM197.591 65.9062V93H191.779V59.1875H197.279L197.591 65.9062ZM196.404 74.8125L193.716 74.7188C193.737 72.4062 194.039 70.2708 194.622 68.3125C195.206 66.3333 196.07 64.6146 197.216 63.1562C198.362 61.6979 199.789 60.5729 201.497 59.7812C203.206 58.9688 205.185 58.5625 207.435 58.5625C209.018 58.5625 210.477 58.7917 211.81 59.25C213.143 59.6875 214.3 60.3854 215.279 61.3438C216.258 62.3021 217.018 63.5312 217.56 65.0312C218.102 66.5312 218.372 68.3438 218.372 70.4688V93H212.591V70.75C212.591 68.9792 212.289 67.5625 211.685 66.5C211.102 65.4375 210.268 64.6667 209.185 64.1875C208.102 63.6875 206.831 63.4375 205.372 63.4375C203.664 63.4375 202.237 63.7396 201.091 64.3438C199.945 64.9479 199.029 65.7812 198.341 66.8438C197.654 67.9062 197.154 69.125 196.841 70.5C196.55 71.8542 196.404 73.2917 196.404 74.8125ZM218.31 71.625L214.435 72.8125C214.456 70.9583 214.758 69.1771 215.341 67.4688C215.945 65.7604 216.81 64.2396 217.935 62.9062C219.081 61.5729 220.487 60.5208 222.154 59.75C223.82 58.9583 225.727 58.5625 227.872 58.5625C229.685 58.5625 231.289 58.8021 232.685 59.2812C234.102 59.7604 235.289 60.5 236.247 61.5C237.227 62.4792 237.966 63.7396 238.466 65.2812C238.966 66.8229 239.216 68.6562 239.216 70.7812V93H233.404V70.7188C233.404 68.8229 233.102 67.3542 232.497 66.3125C231.914 65.25 231.081 64.5104 229.997 64.0938C228.935 63.6562 227.664 63.4375 226.185 63.4375C224.914 63.4375 223.789 63.6562 222.81 64.0938C221.831 64.5312 221.008 65.1354 220.341 65.9062C219.675 66.6562 219.164 67.5208 218.81 68.5C218.477 69.4792 218.31 70.5208 218.31 71.625ZM254.887 59.1875V93H249.075V59.1875H254.887ZM248.637 50.2188C248.637 49.2812 248.919 48.4896 249.481 47.8438C250.065 47.1979 250.919 46.875 252.044 46.875C253.148 46.875 253.992 47.1979 254.575 47.8438C255.179 48.4896 255.481 49.2812 255.481 50.2188C255.481 51.1146 255.179 51.8854 254.575 52.5312C253.992 53.1562 253.148 53.4688 252.044 53.4688C250.919 53.4688 250.065 53.1562 249.481 52.5312C248.919 51.8854 248.637 51.1146 248.637 50.2188ZM270.59 66.4062V93H264.809V59.1875H270.277L270.59 66.4062ZM269.215 74.8125L266.809 74.7188C266.83 72.4062 267.173 70.2708 267.84 68.3125C268.507 66.3333 269.444 64.6146 270.652 63.1562C271.861 61.6979 273.298 60.5729 274.965 59.7812C276.652 58.9688 278.517 58.5625 280.559 58.5625C282.225 58.5625 283.725 58.7917 285.059 59.25C286.392 59.6875 287.527 60.3958 288.465 61.375C289.423 62.3542 290.152 63.625 290.652 65.1875C291.152 66.7292 291.402 68.6146 291.402 70.8438V93H285.59V70.7812C285.59 69.0104 285.33 67.5938 284.809 66.5312C284.288 65.4479 283.527 64.6667 282.527 64.1875C281.527 63.6875 280.298 63.4375 278.84 63.4375C277.402 63.4375 276.09 63.7396 274.902 64.3438C273.736 64.9479 272.725 65.7812 271.871 66.8438C271.038 67.9062 270.382 69.125 269.902 70.5C269.444 71.8542 269.215 73.2917 269.215 74.8125ZM320.761 87.2188V69.8125C320.761 68.4792 320.49 67.3229 319.949 66.3438C319.428 65.3438 318.636 64.5729 317.574 64.0312C316.511 63.4896 315.199 63.2188 313.636 63.2188C312.178 63.2188 310.897 63.4688 309.792 63.9688C308.709 64.4688 307.855 65.125 307.23 65.9375C306.626 66.75 306.324 67.625 306.324 68.5625H300.542C300.542 67.3542 300.855 66.1562 301.48 64.9688C302.105 63.7812 303.001 62.7083 304.167 61.75C305.355 60.7708 306.772 60 308.417 59.4375C310.084 58.8542 311.938 58.5625 313.98 58.5625C316.438 58.5625 318.605 58.9792 320.48 59.8125C322.376 60.6458 323.855 61.9062 324.917 63.5938C326.001 65.2604 326.542 67.3542 326.542 69.875V85.625C326.542 86.75 326.636 87.9479 326.824 89.2188C327.032 90.4896 327.334 91.5833 327.73 92.5V93H321.699C321.407 92.3333 321.178 91.4479 321.011 90.3438C320.845 89.2188 320.761 88.1771 320.761 87.2188ZM321.761 72.5L321.824 76.5625H315.98C314.334 76.5625 312.865 76.6979 311.574 76.9688C310.282 77.2188 309.199 77.6042 308.324 78.125C307.449 78.6458 306.782 79.3021 306.324 80.0938C305.865 80.8646 305.636 81.7708 305.636 82.8125C305.636 83.875 305.876 84.8438 306.355 85.7188C306.834 86.5938 307.553 87.2917 308.511 87.8125C309.49 88.3125 310.688 88.5625 312.105 88.5625C313.876 88.5625 315.438 88.1875 316.792 87.4375C318.147 86.6875 319.22 85.7708 320.011 84.6875C320.824 83.6042 321.261 82.5521 321.324 81.5312L323.792 84.3125C323.647 85.1875 323.251 86.1562 322.605 87.2188C321.959 88.2812 321.095 89.3021 320.011 90.2812C318.949 91.2396 317.678 92.0417 316.199 92.6875C314.74 93.3125 313.095 93.625 311.261 93.625C308.97 93.625 306.959 93.1771 305.23 92.2812C303.522 91.3854 302.188 90.1875 301.23 88.6875C300.292 87.1667 299.824 85.4688 299.824 83.5938C299.824 81.7812 300.178 80.1875 300.886 78.8125C301.595 77.4167 302.615 76.2604 303.949 75.3438C305.282 74.4062 306.886 73.6979 308.761 73.2188C310.636 72.7396 312.73 72.5 315.042 72.5H321.761ZM350.432 59.1875V63.625H332.151V59.1875H350.432ZM338.339 50.9688H344.12V84.625C344.12 85.7708 344.297 86.6354 344.651 87.2188C345.005 87.8021 345.464 88.1875 346.026 88.375C346.589 88.5625 347.193 88.6562 347.839 88.6562C348.318 88.6562 348.818 88.6146 349.339 88.5312C349.88 88.4271 350.287 88.3438 350.557 88.2812L350.589 93C350.13 93.1458 349.526 93.2812 348.776 93.4062C348.047 93.5521 347.162 93.625 346.12 93.625C344.703 93.625 343.401 93.3438 342.214 92.7812C341.026 92.2188 340.078 91.2812 339.37 89.9688C338.682 88.6354 338.339 86.8438 338.339 84.5938V50.9688ZM371.885 93.625C369.531 93.625 367.395 93.2292 365.479 92.4375C363.583 91.625 361.947 90.4896 360.572 89.0312C359.218 87.5729 358.177 85.8438 357.447 83.8438C356.718 81.8438 356.354 79.6562 356.354 77.2812V75.9688C356.354 73.2188 356.76 70.7708 357.572 68.625C358.385 66.4583 359.489 64.625 360.885 63.125C362.281 61.625 363.864 60.4896 365.635 59.7188C367.406 58.9479 369.239 58.5625 371.135 58.5625C373.552 58.5625 375.635 58.9792 377.385 59.8125C379.156 60.6458 380.604 61.8125 381.729 63.3125C382.854 64.7917 383.687 66.5417 384.229 68.5625C384.77 70.5625 385.041 72.75 385.041 75.125V77.7188H359.791V73H379.26V72.5625C379.177 71.0625 378.864 69.6042 378.322 68.1875C377.802 66.7708 376.968 65.6042 375.822 64.6875C374.677 63.7708 373.114 63.3125 371.135 63.3125C369.822 63.3125 368.614 63.5938 367.51 64.1562C366.406 64.6979 365.458 65.5104 364.666 66.5938C363.875 67.6771 363.26 69 362.822 70.5625C362.385 72.125 362.166 73.9271 362.166 75.9688V77.2812C362.166 78.8854 362.385 80.3958 362.822 81.8125C363.281 83.2083 363.937 84.4375 364.791 85.5C365.666 86.5625 366.718 87.3958 367.947 88C369.197 88.6042 370.614 88.9062 372.197 88.9062C374.239 88.9062 375.968 88.4896 377.385 87.6562C378.802 86.8229 380.041 85.7083 381.104 84.3125L384.604 87.0938C383.875 88.1979 382.947 89.25 381.822 90.25C380.697 91.25 379.312 92.0625 377.666 92.6875C376.041 93.3125 374.114 93.625 371.885 93.625Z" fill="#A5DEE5"/>
</svg>
