<svg width="77" height="143" viewBox="0 0 77 143" fill="none" xmlns="http://www.w3.org/2000/svg">
<path d="M4.19998 58.3724L59.8282 4.69599C59.8946 4.63136 59.9608 4.56753 60.0267 4.50449C65.7782 -1.00032 69.1758 -0.404444 67.0916 9.04926L57.7335 45.5459C54.1997 57.9873 56.1471 64.5697 65.2051 70.0452C77.2807 76.2359 78.2048 81.1607 73.1881 86.3457C72.77 86.7778 72.3107 87.2117 71.8132 87.6483L16.6999 139.861C12.2539 144.361 9.83167 143.122 12.3854 132.845L22.0356 92.3143C23.0935 86.0477 23.2368 80.2826 12.7049 73.5452C6.09079 68.554 -4.30024 66.9874 4.19998 58.3724Z" fill="#A5DEE5"/>
<path d="M3.35759 59.1852L60.3576 4.18518M4.19998 58.3724C-4.30024 66.9874 6.09079 68.554 12.7049 73.5452C23.2368 80.2826 23.0935 86.0477 22.0356 92.3143M22.1912 91.6608L12.1912 133.661M16.3609 140.182L73.3609 86.182M67.1891 8.66918L57.1891 47.6692M67.0916 9.04926C69.1997 -0.512695 65.6997 -1.01281 59.8282 4.69599M16.6999 139.861C12.2539 144.361 9.83167 143.122 12.3854 132.845M71.8132 87.6483C78.2814 81.9726 78.287 76.7517 65.2051 70.0452C56.1471 64.5697 54.1997 57.9873 57.7335 45.5459" stroke="#A5DEE5"/>
</svg>
